<?xml version="1.0" encoding="UTF-8" standalone="no"?>
<!DOCTYPE svg PUBLIC "-//W3C//DTD SVG 1.1//EN" "http://www.w3.org/Graphics/SVG/1.1/DTD/svg11.dtd">
<svg width="100%" height="100%" viewBox="0 0 44 49" version="1.1" xmlns="http://www.w3.org/2000/svg" xmlns:xlink="http://www.w3.org/1999/xlink" xml:space="preserve" xmlns:serif="http://www.serif.com/" style="fill-rule:evenodd;clip-rule:evenodd;stroke-linejoin:round;stroke-miterlimit:2;">
    <g transform="matrix(1,0,0,1,-287.453,-523.764)">
        <g transform="matrix(1,0,0,2.8598,0,0)">
            <g transform="matrix(0.0955059,0,0,0.033396,378.852,163.58)">
                <g transform="matrix(1,0,0,1,-957,585.908)">
                    <path d="M41,460L0,0L451,0L410,460L225,512" style="fill:rgb(12,115,184);fill-rule:nonzero;"/>
                </g>
                <g transform="matrix(1,0,0,1,-957,585.908)">
                    <path d="M226,472L375,431L410,37L226,37" style="fill:rgb(48,169,220);fill-rule:nonzero;"/>
                </g>
                <g transform="matrix(1,0,0,1,-957,585.908)">
                    <path d="M226,208L94,208L99,265L226,265L226,208ZM226,94L84,94L89,150L226,150L226,94ZM226,355L102,322L109,382L226,414L226,355Z" style="fill:rgb(236,237,238);fill-rule:nonzero;"/>
                </g>
                <g transform="matrix(1,0,0,1,-957,585.908)">
                    <path d="M226,265L295,265L288,338L226,355L226,414L341,382L367,94L226,94L226,150L306,150L300,208L226,208L226,265Z" style="fill:white;fill-rule:nonzero;"/>
                </g>
            </g>
        </g>
    </g>
</svg>
