<?xml version="1.0" encoding="UTF-8" standalone="no"?>
<!DOCTYPE svg PUBLIC "-//W3C//DTD SVG 1.1//EN" "http://www.w3.org/Graphics/SVG/1.1/DTD/svg11.dtd">
<svg width="100%" height="100%" viewBox="0 0 74 45" version="1.1" xmlns="http://www.w3.org/2000/svg" xmlns:xlink="http://www.w3.org/1999/xlink" xml:space="preserve" xmlns:serif="http://www.serif.com/" style="fill-rule:evenodd;clip-rule:evenodd;stroke-linejoin:round;stroke-miterlimit:2;">
    <g transform="matrix(1,0,0,1,-519.23,-526.13)">
        <g transform="matrix(1,0,0,2.8598,0,0)">
            <g transform="matrix(1.11296,0,0,0.389175,510.131,183.939)">
                <path d="M23.663,10.442L36.043,10.442L36.043,11.428L24.798,11.428L24.798,18.85L35.372,18.85L35.372,19.836L24.798,19.836L24.798,27.985L36.172,27.985L36.172,28.971L23.663,28.971L23.663,10.442ZM37.152,10.442L38.468,10.442L44.296,18.591L50.254,10.442L58.358,0.092L45.044,19.447L51.905,28.971L50.538,28.971L44.296,20.304L38.029,28.971L36.688,28.971L43.6,19.447L37.152,10.442L37.152,10.442ZM52.395,11.428L52.395,10.442L66.503,10.442L66.503,11.428L60.004,11.428L60.004,28.971L58.868,28.971L58.868,11.428L52.395,11.428ZM8.176,10.442L9.594,10.442L29.155,39.777L21.071,28.971L9.362,11.844L9.31,28.971L8.176,28.971L8.176,10.442ZM66.389,27.687C66.156,27.687 65.983,27.507 65.983,27.275C65.983,27.042 66.156,26.862 66.388,26.862C66.623,26.862 66.794,27.042 66.794,27.275C66.794,27.507 66.623,27.687 66.388,27.687L66.389,27.687ZM67.504,26.601L68.111,26.601C68.12,26.931 68.36,27.152 68.713,27.152C69.108,27.152 69.331,26.915 69.331,26.468L69.331,23.644L69.949,23.644L69.949,26.471C69.949,27.275 69.486,27.737 68.718,27.737C67.998,27.737 67.504,27.288 67.504,26.601L67.504,26.601ZM70.758,26.566L71.371,26.566C71.423,26.945 71.793,27.186 72.326,27.186C72.822,27.186 73.187,26.928 73.187,26.574C73.187,26.269 72.955,26.086 72.428,25.962L71.914,25.837C71.194,25.668 70.865,25.319 70.865,24.732C70.865,24.02 71.445,23.546 72.314,23.546C73.123,23.546 73.714,24.02 73.75,24.693L73.148,24.693C73.09,24.325 72.77,24.095 72.306,24.095C71.817,24.095 71.492,24.33 71.492,24.69C71.492,24.976 71.702,25.139 72.221,25.261L72.66,25.369C73.476,25.56 73.813,25.892 73.813,26.493C73.813,27.258 73.222,27.737 72.279,27.737C71.396,27.737 70.802,27.28 70.758,26.565L70.758,26.566Z" style="fill-rule:nonzero;"/>
            </g>
        </g>
    </g>
</svg>
