<?xml version="1.0" encoding="UTF-8" standalone="no"?>
<!DOCTYPE svg PUBLIC "-//W3C//DTD SVG 1.1//EN" "http://www.w3.org/Graphics/SVG/1.1/DTD/svg11.dtd">
<svg width="100%" height="100%" viewBox="0 0 50 45" version="1.1" xmlns="http://www.w3.org/2000/svg" xmlns:xlink="http://www.w3.org/1999/xlink" xml:space="preserve" xmlns:serif="http://www.serif.com/" style="fill-rule:evenodd;clip-rule:evenodd;stroke-linejoin:round;stroke-miterlimit:2;">
    <g transform="matrix(1,0,0,1,-439.221,-526.13)">
        <g transform="matrix(1,0,0,2.8598,0,0)">
            <g transform="matrix(0.258385,0,0,0.188247,335.441,94.5723)">
                <g transform="matrix(0.0567161,0,0,0.0272214,395.277,466.671)">
                    <circle cx="1806.5" cy="1807.1" r="302.6" style="fill:rgb(0,216,255);"/>
                </g>
                <g transform="matrix(1,0,0,0.479959,0,0)">
                    <path d="M497.829,1010.7C496.764,1009.68 495.701,1008.7 494.641,1007.76C484.166,998.458 473.935,992.697 465.567,990.608C459.078,988.988 453.542,989.537 449.449,991.907C445.49,994.197 442.378,998.523 440.6,1004.64C438.319,1012.5 438.161,1023.57 440.683,1036.46L440.683,1036.46C441.088,1038.53 441.563,1040.66 442.103,1042.82C439.628,1043.53 437.254,1044.27 434.989,1045.06L434.989,1045.06C422.713,1049.34 413.467,1055.01 407.994,1060.89C403.741,1065.45 401.648,1070.26 401.648,1074.8C401.648,1079.43 403.854,1084.45 408.326,1089.25C414.118,1095.46 423.89,1101.49 436.787,1105.9L436.788,1105.9C438.465,1106.47 440.2,1107.01 441.987,1107.52C441.402,1109.88 440.897,1112.17 440.474,1114.4C438.052,1127.17 438.343,1138.01 440.703,1145.69C442.537,1151.66 445.656,1155.87 449.585,1158.14L449.585,1158.14C453.595,1160.45 459.048,1161.05 465.436,1159.57C473.711,1157.65 483.818,1152.2 494.079,1143.23L494.079,1143.23C495.417,1142.06 496.758,1140.83 498.096,1139.53C499.834,1141.21 501.566,1142.79 503.281,1144.26L503.281,1144.26C513.138,1152.74 522.675,1157.9 530.506,1159.69C536.59,1161.08 541.799,1160.49 545.725,1158.21C549.732,1155.9 552.974,1151.47 554.884,1145.2C557.358,1137.07 557.682,1125.6 555.035,1112.22C554.702,1110.54 554.317,1108.83 553.883,1107.08C555.098,1106.72 556.29,1106.35 557.454,1105.96C570.751,1101.56 580.863,1095.59 586.864,1089.4C591.517,1084.59 593.816,1079.53 593.816,1074.8C593.816,1070.22 591.631,1065.36 587.224,1060.76C581.571,1054.85 572.069,1049.17 559.649,1044.89L559.649,1044.89C557.665,1044.21 555.603,1043.56 553.47,1042.94C553.819,1041.52 554.137,1040.12 554.422,1038.73L554.422,1038.73C557.25,1025.01 557.132,1013.27 554.762,1004.98C552.925,998.543 549.685,994.021 545.589,991.659C541.627,989.375 536.325,988.839 530.134,990.356C522.192,992.301 512.521,997.692 502.612,1006.32C501.026,1007.69 499.43,1009.16 497.829,1010.7ZM545.943,1109.16C537.967,1111 529.182,1112.35 519.922,1113.17C514.698,1120.73 509.28,1127.65 503.809,1133.64C505.427,1135.19 507.038,1136.66 508.636,1138.04C517.251,1145.45 525.491,1150.13 532.335,1151.69C536.034,1152.54 539.227,1152.49 541.613,1151.11L541.614,1151.11C544.109,1149.66 545.841,1146.71 547.031,1142.81C549.206,1135.66 549.309,1125.57 546.982,1113.82L546.982,1113.82C546.68,1112.29 546.333,1110.74 545.943,1109.16ZM449.945,1109.53C449.403,1111.72 448.933,1113.85 448.54,1115.93C446.422,1127.09 446.488,1136.57 448.55,1143.28C449.665,1146.9 451.299,1149.65 453.687,1151.03C456.185,1152.47 459.606,1152.49 463.585,1151.57C470.86,1149.89 479.655,1144.94 488.675,1137.05C489.898,1135.98 491.122,1134.86 492.346,1133.67C486.778,1127.7 481.199,1120.82 475.836,1113.28C466.635,1112.53 457.899,1111.29 449.945,1109.53ZM509.352,1113.88C505.529,1114.05 501.649,1114.14 497.735,1114.14C493.945,1114.14 490.189,1114.06 486.482,1113.92C490.29,1118.93 494.176,1123.58 498.06,1127.77C501.871,1123.58 505.651,1118.91 509.352,1113.88ZM515.268,1044.68C518.458,1049.39 521.559,1054.34 524.525,1059.47L524.525,1059.47C527.504,1064.61 530.284,1069.78 532.815,1074.89C530.308,1080.05 527.54,1085.27 524.551,1090.45L524.551,1090.45C521.586,1095.59 518.507,1100.57 515.345,1105.31C509.614,1105.72 503.716,1105.93 497.735,1105.93C491.822,1105.93 485.994,1105.75 480.331,1105.38C477.088,1100.64 473.941,1095.66 470.944,1090.48L470.944,1090.48C467.952,1085.31 465.211,1080.13 462.74,1075C465.213,1069.85 467.947,1064.66 470.919,1059.51L470.919,1059.51C473.901,1054.34 477.023,1049.38 480.236,1044.67C485.929,1044.24 491.788,1044.02 497.735,1044.02C503.714,1044.02 509.581,1044.24 515.268,1044.68ZM458.386,1084.64C455.936,1090.46 453.847,1096.15 452.156,1101.62C457.704,1102.83 463.649,1103.77 469.872,1104.47C467.807,1101.26 465.792,1097.97 463.839,1094.6L463.839,1094.6C461.92,1091.28 460.101,1087.96 458.386,1084.64ZM537.243,1084.36C535.482,1087.76 533.618,1091.16 531.662,1094.55C529.743,1097.88 527.776,1101.14 525.769,1104.32C532.075,1103.56 538.093,1102.54 543.696,1101.26C541.958,1095.81 539.784,1090.14 537.243,1084.36ZM444.309,1050.73C442.01,1051.38 439.8,1052.08 437.69,1052.81C426.962,1056.55 418.786,1061.34 414.003,1066.48C411.417,1069.26 409.857,1072.04 409.857,1074.8C409.857,1077.68 411.544,1080.66 414.329,1083.65C419.422,1089.11 428.104,1094.25 439.442,1098.13C440.975,1098.65 442.558,1099.15 444.188,1099.62C446.598,1091.77 449.787,1083.46 453.672,1075C449.833,1066.66 446.691,1058.48 444.309,1050.73ZM551.271,1050.85C548.9,1058.52 545.737,1066.61 541.914,1074.85C545.881,1083.21 549.183,1091.41 551.643,1099.18C552.742,1098.86 553.819,1098.52 554.873,1098.17L554.873,1098.17C566.63,1094.28 575.661,1089.16 580.967,1083.69C583.852,1080.71 585.607,1077.73 585.607,1074.8C585.607,1072.02 583.967,1069.23 581.293,1066.43C576.327,1061.24 567.888,1056.41 556.978,1052.65C555.142,1052.02 553.238,1051.42 551.271,1050.85ZM525.785,1045.74C527.78,1048.86 529.732,1052.07 531.63,1055.35C533.56,1058.69 535.408,1062.03 537.163,1065.36C539.583,1059.7 541.652,1054.14 543.317,1048.8C537.82,1047.55 531.944,1046.52 525.785,1045.74ZM469.701,1045.72C463.586,1046.49 457.74,1047.49 452.274,1048.72C453.937,1054.08 455.981,1059.65 458.381,1065.34C460.091,1062.03 461.902,1058.71 463.808,1055.41C465.72,1052.09 467.689,1048.86 469.701,1045.72ZM545.522,1040.89C545.836,1039.6 546.123,1038.33 546.381,1037.08C548.882,1024.94 548.964,1014.56 546.869,1007.23C545.729,1003.24 544.027,1000.24 541.488,998.771L541.488,998.771C539.084,997.385 535.844,997.409 532.087,998.329C525.11,1000.04 516.706,1004.93 508.001,1012.51L508.001,1012.51C506.535,1013.78 505.061,1015.13 503.582,1016.56C509.085,1022.49 514.558,1029.33 519.822,1036.83C528.968,1037.69 537.622,1039.07 545.522,1040.89ZM492.079,1016.56C491.114,1015.64 490.151,1014.75 489.191,1013.9L489.19,1013.9C479.928,1005.67 470.978,1000.42 463.579,998.573C459.555,997.569 456.1,997.542 453.562,999.012L453.561,999.012C451.159,1000.4 449.562,1003.22 448.484,1006.93C446.48,1013.83 446.524,1023.56 448.739,1034.88C449.117,1036.81 449.557,1038.79 450.059,1040.81C457.949,1039.02 466.597,1037.66 475.703,1036.82C481.022,1029.32 486.547,1022.5 492.079,1016.56ZM497.831,1022.42C494,1026.55 490.173,1031.13 486.422,1036.07C490.147,1035.9 493.923,1035.81 497.735,1035.81C501.587,1035.81 505.395,1035.9 509.142,1036.08C505.432,1031.13 501.641,1026.55 497.831,1022.42Z" style="fill:rgb(0,216,255);"/>
                </g>
            </g>
        </g>
    </g>
</svg>
