<?xml version="1.0" encoding="UTF-8" standalone="no"?>
<!DOCTYPE svg PUBLIC "-//W3C//DTD SVG 1.1//EN" "http://www.w3.org/Graphics/SVG/1.1/DTD/svg11.dtd">
<svg width="100%" height="100%" viewBox="0 0 38 47" version="1.1" xmlns="http://www.w3.org/2000/svg" xmlns:xlink="http://www.w3.org/1999/xlink" xml:space="preserve" xmlns:serif="http://www.serif.com/" style="fill-rule:evenodd;clip-rule:evenodd;stroke-linejoin:round;stroke-miterlimit:2;">
    <g transform="matrix(1,0,0,1,-693.494,-525.099)">
        <g transform="matrix(1,0,0,2.8598,0,0)">
            <g transform="matrix(0.145228,-1.81685e-35,1.08255e-34,0.105806,644.165,137.703)">
                <g id="path-1" transform="matrix(1,0,0,0.479959,339.669,433.914)">
                    <path d="M9.872,293.324L0.011,30.573C-0.314,21.896 6.339,14.541 15.006,14L238.494,0.032C247.316,-0.52 254.915,6.185 255.466,15.007C255.487,15.339 255.497,15.672 255.497,16.005L255.497,302.319C255.497,311.158 248.332,318.323 239.493,318.323C239.253,318.323 239.014,318.318 238.775,318.307L25.148,308.712C16.828,308.339 10.185,301.647 9.872,293.324Z" style="fill:rgb(255,71,133);fill-rule:nonzero;"/>
                </g>
                <g transform="matrix(1,0,0,0.479959,339.669,433.914)">
                    <path d="M188.665,39.127L190.192,2.411L220.884,0L222.206,37.863C222.252,39.181 221.221,40.287 219.903,40.333C219.339,40.352 218.786,40.172 218.342,39.822L206.507,30.498L192.494,41.128C191.443,41.925 189.945,41.72 189.149,40.669C188.813,40.227 188.642,39.682 188.665,39.127ZM149.414,119.98C149.414,126.207 191.356,123.223 196.986,118.849C196.986,76.447 174.234,54.165 132.571,54.165C90.909,54.165 67.566,76.793 67.566,110.736C67.566,169.852 147.345,170.984 147.345,203.229C147.345,212.281 142.913,217.655 133.162,217.655C120.457,217.655 115.433,211.166 116.024,189.103C116.024,184.317 67.566,182.825 66.088,189.103C62.326,242.569 95.636,257.99 133.753,257.99C170.688,257.99 199.645,238.303 199.645,202.664C199.645,139.304 118.684,141.001 118.684,109.605C118.684,96.876 128.139,95.179 133.753,95.179C139.663,95.179 150.3,96.221 149.414,119.98Z" style="fill:white;fill-rule:nonzero;"/>
                </g>
            </g>
        </g>
    </g>
</svg>
